<svg xmlns="http://www.w3.org/2000/svg" viewBox="0 0 96 96"><path d="M65.48,66.84a3.18,3.18,0,0,0,3.78,3.21c1,2.06,4.24,3.72,5.38,5.33.92-.29,2.58-.92,2.58-.92l-2.06-3.84-2.06-.51,3.83,1s5.5,0,7.74-2.78,3-6.53,1.26-8.13" fill="none" stroke="currentColor" stroke-linecap="round" stroke-linejoin="round" stroke-width="2"/><path d="M72.47,47.86s4.46,1.89-1.72,3.69c-1.8.6-3.27,2-4.9,2.49s-6.18,1.07-7.47,3.24c-.84,1.42-3.21,6.94-3.09,7.42.34,1.37.6.77,3.17,1.63s3.33,1.8,6.18.34,5.08-1.55,6-2.23,3.61.26,5.76-1.72c1.63.09,4.72-.26,5.84-1.72,1.89-.6,6.79-1.89,6.36-5.84a34.16,34.16,0,0,0-4-8.93c-1.46-2-4.82-6.19-6.7-6-1.47-.94-4.47-3.26-9-1.89-3.7-.86-8.34-.51-9.11.17a10,10,0,0,0-7.39,3.35c-3.69.52-6.44,4-6.61,5.76-1.64,1.89-2.92,3.87-2.84,6.19a8.08,8.08,0,0,0,.69,5.36c.86,1.34,1.46,3.23,3.26,3.48,1.29-.08,1.81-.08,1.81-.08s.6,1,3.26.51,3.27-.25,3.27-.25" fill="none" stroke="currentColor" stroke-linecap="round" stroke-linejoin="round" stroke-width="2"/><path d="M80,54.15s2.37,3.1,4.85-1.53" fill="none" stroke="currentColor" stroke-linecap="round" stroke-linejoin="round"/><path d="M81.92,67.11s-1.83-1.89-6.27,0" fill="none" stroke="currentColor" stroke-linecap="round" stroke-linejoin="round"/><path d="M62.62,40.65s1.66,2.81,1.23,4.72-.83,4.43,0,6" fill="none" stroke="currentColor" stroke-linecap="round" stroke-linejoin="round"/><path d="M62.62,62.44A8.6,8.6,0,0,1,68,58.17c4-1.1,8.05-1.58,9.31-3.47s3.32-4,2.06-6" fill="none" stroke="currentColor" stroke-linecap="round" stroke-linejoin="round"/><path d="M58.89,45.07s-3.53.16-5,2S51.73,53,49.52,54.7" fill="none" stroke="currentColor" stroke-linecap="round" stroke-linejoin="round"/><path d="M58.89,51.38s-4.42,0-4.69,2.53,0,3.47-1.37,4.58" fill="none" stroke="currentColor" stroke-linecap="round" stroke-linejoin="round"/><rect x="7.36" y="35.71" width="12.38" height="38.92" rx="6.19" stroke-width="2" stroke="currentColor" stroke-linecap="round" stroke-linejoin="round" fill="none"/><rect x="7.36" y="49.35" width="12.38" height="25.28" rx="6.19" stroke-width="2" stroke="currentColor" stroke-linecap="round" stroke-linejoin="round" fill="currentColor"/><line x1="24.59" y1="56.33" x2="32.89" y2="56.33" fill="none" stroke="currentColor" stroke-linecap="round" stroke-linejoin="round" stroke-width="2"/><polygon points="31.43 61.32 40.06 56.33 31.43 51.35 31.43 61.32" fill="currentColor"/><path d="M62.62,32.35S47.17,9.71,26,27.35" fill="none" stroke="currentColor" stroke-linecap="round" stroke-linejoin="round" stroke-width="2"/><polygon points="23.7 22.79 20.84 32.35 30.55 30.05 23.7 22.79" fill="currentColor"/></svg>