<svg xmlns="http://www.w3.org/2000/svg" viewBox="0 0 96 96"><path d="M35.22,57.39C36.48,60.48,37.3,64,38.55,67l1.83,4.49.09.23-1.93-1.53-6-4.77a2.52,2.52,0,0,0-3.61,3.41A59.57,59.57,0,0,0,41.4,82.49c4.33,3.46,9.52,7.24,15.32,7,1.85-.09,2.23-.54,2.37-2.35l.47-1a18.64,18.64,0,0,0,.73-6.55,16.94,16.94,0,0,1,.05-6.27c1-4.82,3.34-9.25,3.81-14.2a2.5,2.5,0,0,0-5-.75,52.27,52.27,0,0,1-3,8.72c0-.81-.08-1.58-.07-2.24,0-1.48.07-3,.16-4.43q.84-5.26,1.28-10.58c.26-3.19-4.38-4-4.95-.76a90.69,90.69,0,0,0-1.27,10.52c-.27,1.67-.57,3.33-.89,5q-.27-1.39-.51-2.79l-.09-.64q-1-6.62-2-13.24c-.48-3.19-5.46-2.68-5,.52.59,3.94,1.16,7.88,1.78,11.81.19,1.25.37,2.49.56,3.74-.36-.7-.73-1.4-1.09-2.11C42,57.63,40,53.33,38,49c-1.36-2.89-5.93-1.24-4.69,1.77Z" fill="none" stroke="currentColor" stroke-linejoin="round" stroke-width="2"/><rect x="30.67" y="6.51" width="9.21" height="33" stroke-width="2" stroke="currentColor" stroke-linecap="round" stroke-linejoin="round" fill="none"/><rect x="39.88" y="6.51" width="9.21" height="33" stroke-width="2" stroke="currentColor" stroke-linecap="round" stroke-linejoin="round" fill="none"/><rect x="49.09" y="6.51" width="9.21" height="33" stroke-width="2" stroke="currentColor" stroke-linecap="round" stroke-linejoin="round" fill="none"/><rect x="58.29" y="6.51" width="9.21" height="33" stroke-width="2" stroke="currentColor" stroke-linecap="round" stroke-linejoin="round" fill="none"/><rect x="30.67" y="31.55" width="9.21" height="7.96" stroke-width="2" stroke="currentColor" stroke-linecap="round" stroke-linejoin="round" fill="currentColor"/><rect x="39.88" y="26.26" width="9.21" height="13.25" stroke-width="2" stroke="currentColor" stroke-linecap="round" stroke-linejoin="round" fill="currentColor"/><rect x="49.09" y="18.26" width="9.21" height="21.25" stroke-width="2" stroke="currentColor" stroke-linecap="round" stroke-linejoin="round" fill="currentColor"/><rect x="58.29" y="35.14" width="9.21" height="4.38" stroke-width="2" stroke="currentColor" stroke-linecap="round" stroke-linejoin="round" fill="currentColor"/></svg>