<svg xmlns="http://www.w3.org/2000/svg" viewBox="0 0 96 96" style="fill-rule:evenodd;clip-rule:evenodd;stroke-linecap:round;stroke-linejoin:round;stroke-miterlimit:1.5;"><rect id="rifling" x="0" y="0" width="96" height="96" style="fill:none;"/><circle cx="47.722" cy="48.376" r="38.61" style="fill:none;stroke:currentColor;stroke-width:2px;"/><path d="M74.231,9.766c6.679,0 12.101,5.422 12.101,12.101" style="fill:none;stroke:currentColor;stroke-width:2px;"/><path d="M48,9.766l26.231,0" style="fill:none;stroke:currentColor;stroke-width:2px;"/><path d="M86.332,21.868l0,26.509" style="fill:none;stroke:currentColor;stroke-width:2px;"/><path d="M26.458,46.795l-5.879,-1.91l3.395,-10.449l5.879,1.91c2.888,-4.481 7.387,-7.827 12.677,-9.216l0,-6.208l10.987,0l-0,6.208c5.284,1.388 9.78,4.729 12.668,9.203l5.84,-1.897l3.395,10.449l-5.832,1.895c0.023,0.412 0.035,0.827 0.035,1.245c0,5.204 -1.844,9.981 -4.914,13.711l3.597,4.951l-8.888,6.458l-3.609,-4.968c-2.416,0.935 -5.041,1.448 -7.785,1.448c-2.774,0 -5.426,-0.524 -7.864,-1.478l-3.631,4.998l-8.888,-6.458l3.644,-5.016c-3.038,-3.721 -4.861,-8.472 -4.861,-13.646c0,-0.413 0.012,-0.822 0.034,-1.229Z" style="fill:none;stroke:currentColor;stroke-width:2px;stroke-linecap:butt;"/><path d="M42.764,27.534c0,0 4.981,-3.002 10.446,-4.86" style="fill:none;stroke:currentColor;stroke-width:1px;"/><path d="M21.778,44.809c0,0 1.911,-5.357 6.476,-8.913" style="fill:none;stroke:currentColor;stroke-width:1px;"/><path d="M26.856,47.033c0,0 14.753,-17.248 26.675,-21.922" style="fill:none;stroke:currentColor;stroke-width:1px;"/><path d="M31.869,61.581c0,0 16.221,-27.772 26.288,-32.56" style="fill:none;stroke:currentColor;stroke-width:1px;"/><path d="M35.77,73.144c0,0 5.948,-20.972 26.245,-41.133" style="fill:none;stroke:currentColor;stroke-width:1px;"/><path d="M39.928,68.404c0,0 5.232,-18.345 23.391,-36.393" style="fill:none;stroke:currentColor;stroke-width:1px;"/><path d="M69.121,46.53c0,0 0.378,-3.472 3.906,-9.795" style="fill:none;stroke:currentColor;stroke-width:1px;"/><path d="M64.254,61.581c0,0 -0.052,-12.861 8.355,-25.509" style="fill:none;stroke:currentColor;stroke-width:1px;"/><path d="M56.152,68.404c0,0 -1.679,-12.207 10.299,-32.214" style="fill:none;stroke:currentColor;stroke-width:1px;"/><path d="M59.758,73.144c0,0 -5.724,-11.603 7.711,-37.072" style="fill:none;stroke:currentColor;stroke-width:1px;"/></svg>