<svg xmlns="http://www.w3.org/2000/svg" viewBox="0 0 96 96"><path d="M78.93,54.38c-.56,1.3-1.09,2.62-1.57,4-.22.6-.43,1.31-.66,2,2-2.14,1-1.11,2.65-3.59a2.41,2.41,0,0,1,4.25,2.28c-2,4.34-2.68,4.26-5.13,8.31a16.4,16.4,0,0,0-2.07,5.67,17.8,17.8,0,0,1-2.77,5.71l-.76.76c-.71,1.59-1.19,1.89-2.9,1.36-5.35-1.63-8.83-6.74-11.65-11.27a57.47,57.47,0,0,1-6.91-16.39,2.42,2.42,0,0,1,4.37-1.92l3.9,6.26,1.26,2v-.24l-.21-4.66c-.14-3.21.23-6.62.09-9.83l.34-6.61c-.15-3.13,4.53-3.16,4.83-.1.44,4.55.88,9.1,1.46,13.63.09.76.2,1.51.3,2.26.23-1.19.47-2.38.7-3.57,0,0,.43-3.24,2.86-2.8s2,2.59,1.56,5.3c0,.21-.08.41-.12.61-.15.9-.31,1.8-.44,2.7q1.24-2.1,2.41-4.23a2.23,2.23,0,0,1,3.05-1A2.34,2.34,0,0,1,78.93,54.38Z" fill="none" stroke="currentColor" stroke-linejoin="round" stroke-width="2"/><path d="M17.07,54.38c.56,1.3,1.09,2.62,1.57,4,.22.6.43,1.31.66,2-2-2.14-1-1.11-2.65-3.59a2.41,2.41,0,0,0-4.25,2.28c2,4.34,2.68,4.26,5.13,8.31a16.4,16.4,0,0,1,2.07,5.67,17.8,17.8,0,0,0,2.77,5.71l.76.76c.71,1.59,1.19,1.89,2.9,1.36,5.35-1.63,8.83-6.74,11.65-11.27a57.47,57.47,0,0,0,6.91-16.39,2.42,2.42,0,0,0-4.37-1.92l-3.9,6.26-1.26,2v-.24l.21-4.66c.14-3.21-.23-6.62-.09-9.83l-.34-6.61c.15-3.13-4.53-3.16-4.83-.1-.44,4.55-.88,9.1-1.46,13.63-.09.76-.2,1.51-.3,2.26-.23-1.19-.47-2.38-.7-3.57,0,0-.43-3.24-2.86-2.8s-2,2.59-1.56,5.3c0,.21.08.41.12.61.15.9.31,1.8.44,2.7q-1.24-2.1-2.41-4.23a2.23,2.23,0,0,0-3.05-1A2.34,2.34,0,0,0,17.07,54.38Z" fill="none" stroke="currentColor" stroke-linejoin="round" stroke-width="2"/><path d="M32.44,36.2V27.49a6.88,6.88,0,0,1,6.88-6.87h2.8" fill="none" stroke="currentColor" stroke-miterlimit="10" stroke-width="2"/><path d="M63.56,36.2V27.49a6.88,6.88,0,0,0-6.88-6.87h-2.8" fill="none" stroke="currentColor" stroke-miterlimit="10" stroke-width="2"/><circle cx="48" cy="20.76" r="5.89" fill="none" stroke="currentColor" stroke-miterlimit="10" stroke-width="2"/></svg>