<svg xmlns="http://www.w3.org/2000/svg" viewBox="0 0 96 96" style="fill-rule:evenodd;clip-rule:evenodd;stroke-linecap:round;stroke-linejoin:round;stroke-miterlimit:1.5;"><rect id="servo" x="-0" y="0" width="96" height="96" style="fill:none;"/><circle cx="46.698" cy="65.441" r="11.371" style="fill:none;stroke:currentColor;stroke-width:2px;"/><path d="M35.358,70.183c-4.438,-4.438 -4.438,-11.644 0,-16.082c4.438,-4.438 11.644,-4.438 16.082,0" style="fill:none;stroke:currentColor;stroke-width:2px;"/><path d="M35.326,70.183l3.077,3.077" style="fill:none;stroke:currentColor;stroke-width:2px;"/><path d="M79.445,34.873l-23.637,23.637l-3.829,-3.829l23.637,-23.637l3.829,3.829Z" style="fill:none;stroke:currentColor;stroke-width:2px;"/><path d="M75.616,31.044l-23.637,23.637l-2.883,-2.883l23.637,-23.637l2.883,2.883Z" style="fill:none;stroke:currentColor;stroke-width:2px;"/><path d="M68.162,46.199l1.662,0c4.613,0 8.358,3.745 8.358,8.358l0,16.715c0,4.613 -3.745,8.358 -8.358,8.358l-36.828,0c-4.613,0 -8.358,-3.745 -8.358,-8.358l0,-16.715c0,-4.613 3.745,-8.358 8.358,-8.358l21.368,-0" style="fill:none;stroke:currentColor;stroke-width:2px;"/><path d="M26.949,77.029l-6.418,-6.414c-1.667,-1.528 -2.713,-3.723 -2.713,-6.161l0,-16.715c0,-4.613 3.745,-8.358 8.358,-8.358l34.896,-0" style="fill:none;stroke:currentColor;stroke-width:2px;"/><path d="M75.229,48.198l-4.86,-4.029" style="fill:none;stroke:currentColor;stroke-width:2px;"/><path d="M35.846,31.865c0,0 7.355,-8.208 15.563,0" style="fill:none;stroke:currentColor;stroke-width:2px;"/><path d="M32.034,27.671c0,0 10.958,-12.228 23.187,0" style="fill:none;stroke:currentColor;stroke-width:2px;"/><path d="M28.738,23.129c0,0 14.074,-15.705 29.779,0" style="fill:none;stroke:currentColor;stroke-width:2px;"/></svg>