<svg xmlns="http://www.w3.org/2000/svg" viewBox="0 0 96 96"  style="fill-rule:evenodd;clip-rule:evenodd;stroke-linecap:round;stroke-linejoin:round;stroke-miterlimit:1.5;"><rect id="vibrator" x="0" y="0" width="96" height="96" style="fill:none;"/><path d="M76.394,24.826l0,9.286c0,2.563 -2.081,4.643 -4.643,4.643l-47.501,0c-2.563,0 -4.643,-2.081 -4.643,-4.643l0,-9.286c0,-2.563 2.081,-4.643 4.643,-4.643l47.501,0c2.563,0 4.643,2.081 4.643,4.643Z" style="fill:none;stroke:currentColor;stroke-width:2px;"/><path d="M67.111,38.755c0,3.268 -8.563,5.921 -19.111,5.921c-10.547,0 -19.111,-2.653 -19.111,-5.921" style="fill:none;stroke:currentColor;stroke-width:2px;"/><path d="M22.789,51.477c-0,0 0.631,0.635 1.49,1.501c1.252,1.261 2.955,1.97 4.732,1.97c1.777,-0 3.48,-0.709 4.732,-1.97c0,-0 0,-0 0.001,-0.001c1.252,-1.261 2.955,-1.97 4.732,-1.97c1.777,-0 3.48,0.709 4.732,1.97c0,0 0,0 0.001,0.001c1.252,1.261 2.955,1.97 4.732,1.97c1.777,0 3.48,-0.709 4.732,-1.97c0,-0 0,-0 0.001,-0.001c1.252,-1.261 2.955,-1.97 4.732,-1.97c1.777,-0 3.48,0.709 4.732,1.97c0.008,0.009 0.017,0.017 0.025,0.026c2.601,2.621 6.833,2.641 9.46,0.045c0.912,-0.902 1.59,-1.571 1.59,-1.571" style="fill:none;stroke:currentColor;stroke-width:2px;"/><path d="M22.789,60.561c-0,0 0.631,0.635 1.49,1.501c1.252,1.261 2.955,1.97 4.732,1.97c1.777,-0 3.48,-0.709 4.732,-1.97c0,-0 0,-0 0.001,-0.001c1.252,-1.261 2.955,-1.97 4.732,-1.97c1.777,-0 3.48,0.709 4.732,1.97c0,0 0,0 0.001,0.001c1.252,1.261 2.955,1.97 4.732,1.97c1.777,0 3.48,-0.709 4.732,-1.97c0,-0 0,-0 0.001,-0.001c1.252,-1.261 2.955,-1.97 4.732,-1.97c1.777,-0 3.48,0.709 4.732,1.97c0.008,0.009 0.017,0.017 0.025,0.026c2.601,2.621 6.833,2.641 9.46,0.045c0.912,-0.902 1.59,-1.571 1.59,-1.571" style="fill:none;stroke:currentColor;stroke-width:2px;"/><path d="M22.789,69.646c-0,0 0.631,0.635 1.49,1.501c1.252,1.261 2.955,1.97 4.732,1.97c1.777,-0 3.48,-0.709 4.732,-1.97c0,-0 0,-0 0.001,-0.001c1.252,-1.261 2.955,-1.97 4.732,-1.97c1.777,-0 3.48,0.709 4.732,1.97c0,0 0,0 0.001,0.001c1.252,1.261 2.955,1.97 4.732,1.97c1.777,0 3.48,-0.709 4.732,-1.97c0,-0 0,-0 0.001,-0.001c1.252,-1.261 2.955,-1.97 4.732,-1.97c1.777,-0 3.48,0.709 4.732,1.97c0.008,0.009 0.017,0.017 0.025,0.026c2.601,2.621 6.833,2.641 9.46,0.045c0.912,-0.902 1.59,-1.571 1.59,-1.571" style="fill:none;stroke:currentColor;stroke-width:2px;"/></svg>