<svg xmlns="http://www.w3.org/2000/svg" viewBox="0 0 96 96" style="fill-rule:evenodd;clip-rule:evenodd;stroke-linecap:round;stroke-linejoin:round;stroke-miterlimit:1.5;"><rect id="website" x="0" y="0" width="96" height="96" style="fill:none;"/><path d="M82.827,20.016l0,56.625c0,3.259 -2.646,5.905 -5.905,5.905l-57.843,0c-3.259,0 -5.905,-2.646 -5.905,-5.905l0,-56.625c0,-3.259 2.646,-5.905 5.905,-5.905l57.843,0c3.259,0 5.905,2.646 5.905,5.905Z" style="fill:none;stroke:currentColor;stroke-width:2px;"/><circle cx="20.51" cy="21.05" r="2.51" style="fill:none;stroke:currentColor;stroke-width:2px;"/><circle cx="28.832" cy="21.05" r="2.51" style="fill:none;stroke:currentColor;stroke-width:2px;"/><circle cx="37.153" cy="21.05" r="2.51" style="fill:none;stroke:currentColor;stroke-width:2px;"/><path d="M78,31.506l0,6.209c0,1.713 -1.391,3.105 -3.105,3.105l-53.791,0c-1.713,0 -3.105,-1.391 -3.105,-3.105l0,-6.209c0,-1.713 1.391,-3.105 3.105,-3.105l53.791,0c1.713,0 3.105,1.391 3.105,3.105Z" style="fill:none;stroke:currentColor;stroke-width:2px;"/><path d="M78,49.655l0,6.209c0,1.713 -1.391,3.105 -3.105,3.105l-53.791,0c-1.713,0 -3.105,-1.391 -3.105,-3.105l0,-6.209c0,-1.713 1.391,-3.105 3.105,-3.105l53.791,0c1.713,0 3.105,1.391 3.105,3.105Z" style="fill:none;stroke:currentColor;stroke-width:2px;"/><path d="M78,67.804l0,6.209c0,1.713 -1.391,3.105 -3.105,3.105l-53.791,0c-1.713,0 -3.105,-1.391 -3.105,-3.105l0,-6.209c0,-1.713 1.391,-3.105 3.105,-3.105l53.791,0c1.713,0 3.105,1.391 3.105,3.105Z" style="fill:none;stroke:currentColor;stroke-width:2px;"/></svg>