<?xml version="1.0" encoding="UTF-8" standalone="no"?>
<!DOCTYPE svg PUBLIC "-//W3C//DTD SVG 1.1//EN" "http://www.w3.org/Graphics/SVG/1.1/DTD/svg11.dtd">
<svg width="100%" height="100%" viewBox="0 0 128 128" version="1.1" xmlns="http://www.w3.org/2000/svg" xmlns:xlink="http://www.w3.org/1999/xlink" xml:space="preserve" xmlns:serif="http://www.serif.com/" style="fill-rule:evenodd;clip-rule:evenodd;stroke-linejoin:round;stroke-miterlimit:2;">
    <g transform="matrix(-2.551664,0.430461,0.430461,2.551664,98.341369,82.188378)">
        <path d="M0,-19.66C1.254,-16.569 2.075,-13.107 3.329,-10.015C3.937,-8.516 4.544,-7.018 5.152,-5.519C5.184,-5.443 5.214,-5.367 5.245,-5.29C4.603,-5.801 3.96,-6.312 3.318,-6.824C1.319,-8.414 -0.679,-10.004 -2.677,-11.595C-4.917,-13.377 -7.847,-10.532 -6.289,-8.188C-2.872,-3.046 1.341,1.59 6.172,5.44C10.505,8.892 15.692,12.681 21.493,12.423C23.35,12.341 23.721,11.885 23.861,10.077L24.338,9.074C24.506,8.72 25.43,4.866 25.068,2.522C24.732,0.35 24.67,-1.579 25.117,-3.746C26.11,-8.561 28.457,-12.994 28.925,-17.938C29.232,-21.181 24.741,-21.806 23.972,-18.693C23.231,-15.695 22.207,-12.785 20.952,-9.975C20.916,-10.788 20.877,-11.555 20.881,-12.217C20.889,-13.693 20.952,-15.167 21.043,-16.64C21.605,-20.149 22.038,-23.679 22.327,-27.225C22.586,-30.411 17.95,-31.191 17.374,-27.98C16.749,-24.5 16.325,-20.991 16.102,-17.464C15.836,-15.798 15.541,-14.137 15.213,-12.481C15.031,-13.409 14.868,-14.341 14.707,-15.273C14.675,-15.486 14.644,-15.7 14.611,-15.913C13.947,-20.328 13.283,-24.743 12.619,-29.159C12.14,-32.341 7.158,-31.829 7.637,-28.632C8.227,-24.697 8.793,-20.756 9.413,-16.825C9.601,-15.578 9.787,-14.331 9.976,-13.085C9.612,-13.786 9.246,-14.486 8.889,-15.191C6.748,-19.427 4.735,-23.726 2.723,-28.023C1.369,-30.912 -3.203,-29.263 -1.964,-26.25L0,-19.66Z" style="fill:rgb(241,126,61);fill-rule:nonzero;"/>
    </g>
</svg>
